<?xml version="1.0" encoding="UTF-8"?>
<svg version="1.1" xmlns="http://www.w3.org/2000/svg" width="256" height="256">
<path d="M0 0 C1.93111633 -0.00503792 1.93111633 -0.00503792 3.90124512 -0.01017761 C7.40974243 -0.01895465 10.9182153 -0.02135307 14.42672253 -0.0219934 C16.62577501 -0.02270755 18.82482141 -0.02484875 21.02387238 -0.02749062 C28.71578867 -0.03672361 36.40768772 -0.04082812 44.09960938 -0.04003906 C51.23695795 -0.03943901 58.37423078 -0.04998197 65.5115602 -0.06578273 C71.66646225 -0.07891648 77.82133972 -0.08422052 83.97625566 -0.08358365 C87.64024162 -0.08333035 91.30416018 -0.08608768 94.96813202 -0.0967617 C99.06213955 -0.10836452 103.15598039 -0.10366038 107.25 -0.09765625 C109.03818146 -0.10608551 109.03818146 -0.10608551 110.86248779 -0.11468506 C126.36960115 -0.05724364 140.48293842 2.12751337 152.13769531 13.17651367 C162.0502459 24.35308078 163.33750141 37.03809332 163.2878418 51.44799805 C163.29355633 52.95885214 163.30052475 54.46970193 163.30863953 55.98054504 C163.3264644 60.05287957 163.32542311 64.12499739 163.31969714 68.19735909 C163.31659041 71.60924541 163.32271399 75.02109098 163.32873589 78.43297148 C163.34274382 86.4866807 163.34125042 94.54028376 163.32983398 102.59399414 C163.31835023 110.87781384 163.33244121 119.16130988 163.35923046 127.44508696 C163.38144084 134.58259964 163.38801303 141.72001111 163.38215405 148.85755587 C163.37879676 153.10947717 163.38111758 157.36119095 163.39840508 161.61308289 C163.41395823 165.61224792 163.40982694 169.61093587 163.39109993 173.61008263 C163.38743738 175.06967266 163.39045371 176.52929873 163.40098572 177.98885536 C163.48910338 191.21988037 160.85880664 202.10456683 151.88378906 212.14526367 C140.72142245 222.19660157 129.66448806 224.75497884 114.94824219 224.6628418 C113.47679455 224.66827412 112.00535236 224.67540296 110.53392029 224.68408203 C106.56894564 224.70218674 102.60439123 224.69530166 98.63941002 224.68256569 C94.4712252 224.6723708 90.30307407 224.68184925 86.1348877 224.68811035 C79.13787439 224.695368 72.1410305 224.68584872 65.14404297 224.66674805 C57.07833353 224.64498286 49.01302869 224.65203558 40.94732904 224.67405367 C33.9966394 224.69226157 27.04607086 224.69473977 20.09536505 224.68429899 C15.95523806 224.67809356 11.81530063 224.67714643 7.67518616 224.69044495 C3.78105488 224.70208178 -0.11255965 224.69383668 -4.00663567 224.67086792 C-5.42751652 224.66562228 -6.84844159 224.66702269 -8.26930428 224.67591858 C-21.50428633 224.75108102 -31.98693679 221.90898721 -42.11621094 213.14526367 C-49.79498562 205.09873158 -54.22160843 195.91356254 -54.26338196 184.78466797 C-54.27053726 183.47548904 -54.27769257 182.16631012 -54.2850647 180.81745911 C-54.28790485 179.36813378 -54.29061659 177.9188082 -54.29321289 176.46948242 C-54.29948026 174.94158271 -54.3061273 173.41368451 -54.31312561 171.88578796 C-54.33414389 166.86812395 -54.34452904 161.85045972 -54.35449219 156.83276367 C-54.35854122 155.10198959 -54.36265818 153.37121566 -54.36684227 151.64044189 C-54.38589264 143.50431741 -54.40012143 135.36820197 -54.40845424 127.23205948 C-54.41821266 117.85994877 -54.44449625 108.48807511 -54.48495513 99.11604786 C-54.51519431 91.86063603 -54.52993067 84.60529182 -54.53323525 77.34981823 C-54.53557773 73.02227947 -54.54443241 68.69499398 -54.56969643 64.36752319 C-54.59311779 60.28969597 -54.59715449 56.21228622 -54.58693504 52.13440895 C-54.58644289 50.64620379 -54.59266754 49.15797709 -54.60649109 47.66983604 C-54.72457203 34.19250982 -52.58552201 23.19392078 -43.11621094 13.14526367 C-31.08082822 0.97373409 -16.3000036 -0.00615466 0 0 Z " fill="#020202" transform="translate(74.1162109375,14.854736328125)"/>
<path d="M0 0 C26.4 0 52.8 0 80 0 C77.41056471 10.35774115 70.47165867 19.52834133 63 27 C60.78144736 27.08783542 58.56011504 27.10694609 56.33984375 27.09765625 C55.34314415 27.09553383 55.34314415 27.09553383 54.3263092 27.09336853 C52.19666101 27.08775518 50.06711661 27.07520054 47.9375 27.0625 C46.49674631 27.05748671 45.05599097 27.05292351 43.61523438 27.04882812 C40.07675042 27.03863076 36.53849187 27.0190583 33 27 C33 34.26 33 41.52 33 49 C27.2816095 51.54150689 21.85805834 53.88774723 15.9375 55.75 C15.28201172 55.97042969 14.62652344 56.19085938 13.95117188 56.41796875 C13.29568359 56.62550781 12.64019531 56.83304688 11.96484375 57.046875 C11.10814087 57.32289551 11.10814087 57.32289551 10.23413086 57.60449219 C6.8724774 58.19960514 3.41392347 58 0 58 C0 38.86 0 19.72 0 0 Z " fill="#FCFCFB" transform="translate(65,48)"/>
<path d="M0 0 C0 2.97 0 5.94 0 9 C13.2 9 26.4 9 40 9 C38.01277956 13.96805111 35.76136572 18.73456954 33.4375 23.55078125 C31.62234503 27.66440404 31.62234503 27.66440404 30 35 C20.43 35 10.86 35 1 35 C1 41.93 1 48.86 1 56 C-11.92055944 60.30685315 -18.66801934 61 -33 61 C-33 43.51 -33 26.02 -33 8 C-27.72 7.01 -22.44 6.02 -17 5 C-12.64914333 3.72966194 -12.64914333 3.72966194 -9.1875 2.3125 C-3.25958702 0 -3.25958702 0 0 0 Z " fill="#F9F9F9" transform="translate(98,103)"/>
<path d="M0 0 C0 3.96 0 7.92 0 12 C14.19 12 28.38 12 43 12 C41.65569237 16.03292288 40.37376659 19.48075987 38.5625 23.25 C36.45586478 27.78641212 34.88659055 32.27849763 33.578125 37.1015625 C33 39 33 39 32 40 C29.94443339 40.09413687 27.88559819 40.11742998 25.82788086 40.11352539 C24.86205833 40.11374443 24.86205833 40.11374443 23.87672424 40.1139679 C21.73939697 40.11326885 19.60215587 40.10547691 17.46484375 40.09765625 C15.98653715 40.09579204 14.50822993 40.09436815 13.02992249 40.09336853 C9.13201198 40.08954359 5.23413851 40.07971352 1.33624268 40.06866455 C-3.33683761 40.05665516 -8.00993026 40.05204808 -12.68302155 40.04621124 C-19.78870682 40.03650174 -26.89431076 40.01734505 -34 40 C-34 28.45 -34 16.9 -34 5 C-22.875 3.625 -22.875 3.625 -19.40185547 3.20556641 C-12.79859273 2.36611954 -6.58715641 0 0 0 Z " fill="#FBFBFB" transform="translate(99,165)"/>
<path d="M0 0 C13.46712062 1.24695561 24.79529618 5.83635136 34.23828125 15.77734375 C37.71864585 20.16831372 41 25.29436025 41 31 C39.20755859 31.36351562 39.20755859 31.36351562 37.37890625 31.734375 C24.25467125 33.78534418 24.25467125 33.78534418 13 40 C11.33382885 40.04063832 9.66611905 40.042721 8 40 C7.835 39.278125 7.67 38.55625 7.5 37.8125 C5.25217408 33.59782641 2.34284849 31.86948064 -2 30 C-6.62826602 28.75354638 -11.27819159 27.81570567 -16 27 C-12.65190522 21.70050086 -9.30124448 16.41625767 -5.75 11.25 C-3.30879606 7.6273578 -1.56084383 4.07553666 0 0 Z " fill="#287463" transform="translate(151,48)"/>
<path d="M0 0 C0.98484108 1.74681293 1.96266187 3.4975851 2.9375 5.25 C3.48277344 6.22453125 4.02804688 7.1990625 4.58984375 8.203125 C8.90455245 16.7608298 8.1888081 28.73299369 6.12890625 37.859375 C3.67100404 44.72538379 0.27287802 49.9702518 -5 55 C-7.75081924 51.67983909 -10.09496198 48.31913255 -12.3125 44.625 C-15.73891134 39.16921199 -19.52497536 34.06725918 -25.140625 30.7265625 C-27.90109357 28.16327025 -27.84071376 26.07681401 -28.0625 22.375 C-27.93380482 17.75150642 -27.66957331 15.72948803 -24.51171875 12.2890625 C-21.10611736 9.89902368 -17.69411413 7.89570262 -14 6 C-12.85660156 5.37996094 -11.71320313 4.75992188 -10.53515625 4.12109375 C-2.64675174 0 -2.64675174 0 0 0 Z " fill="#9A6684" transform="translate(193,137)"/>
<path d="M0 0 C7.44570616 3.50386172 11.6598012 10.37360689 16.125 17 C16.71925781 17.8353125 17.31351563 18.670625 17.92578125 19.53125 C19.125 22 19.125 22 19.109375 24.6484375 C17.78605471 27.80970263 16.50057373 28.29708284 13.375 29.625 C-0.05636112 35.06968219 -12.59286214 35.39498183 -26.875 35 C-25.43152703 25.33873534 -22.53062244 14.43117167 -15.875 7 C-13.36085089 5.57186783 -11.00969827 4.63976226 -8.2421875 3.81640625 C-5.20706749 2.76964044 -3.15993549 0 0 0 Z " fill="#CACAC9" transform="translate(163.875,170)"/>
<path d="M0 0 C3.81713389 0.32177492 6.15027769 1.56165045 9.1875 3.8125 C15.00793727 7.84426469 21.12033236 10.4700375 28.0625 11.875 C32.99751153 13.00070528 37.2005424 15.70503469 41 19 C42.2578125 21.1953125 42.2578125 21.1953125 43 23 C41.49759766 23.77923828 41.49759766 23.77923828 39.96484375 24.57421875 C31.59188667 28.84966548 31.59188667 28.84966548 23.75 34 C21 36 21 36 18 36 C16.66666667 34.66666667 15.33333333 33.33333333 14 32 C7.83798052 28.46011647 2.182184 27.84580213 -4.8125 27.4375 C-5.50537109 27.39431641 -6.19824219 27.35113281 -6.91210938 27.30664062 C-8.60788686 27.20138547 -10.30392052 27.10027137 -12 27 C-11.12732483 17.72782632 -6.67517872 6.67517872 0 0 Z " fill="#83588C" transform="translate(145,111)"/>
<path d="M0 0 C0.69958927 11.37998544 0.07141058 20.37174095 -7.125 29.77734375 C-11.30173247 34.35622783 -11.30173247 34.35622783 -14 36 C-16.9921875 35.8046875 -16.9921875 35.8046875 -20 35 C-20.78761719 34.82082031 -21.57523438 34.64164063 -22.38671875 34.45703125 C-29.14988263 32.56242677 -34.958135 29.54930853 -41 26 C-39.72040323 23.29270498 -38.30636204 20.94711818 -36.5 18.5625 C-34.91700052 16.40722083 -33.91257143 14.7737143 -32.9375 12.25 C-31.77538396 9.4609215 -30.62150276 8.46495743 -28 7 C-26.68 7 -25.36 7 -24 7 C-24 6.34 -24 5.68 -24 5 C-15.78616491 1.75372326 -8.86516656 -0.06092898 0 0 Z " fill="#D1A647" transform="translate(193,84)"/>
<path d="M0 0 C0 3.96 0 7.92 0 12 C14.19 12 28.38 12 43 12 C41.7290827 15.8127519 40.66918099 18.90625009 38.875 22.375 C38.52179688 23.06335938 38.16859375 23.75171875 37.8046875 24.4609375 C37.53914063 24.96882813 37.27359375 25.47671875 37 26 C36.505 24.515 36.505 24.515 36 23 C37.32 20.36 38.64 17.72 40 15 C19.705 14.505 19.705 14.505 -1 14 C-1 9.71 -1 5.42 -1 1 C-2.98 1.66 -4.96 2.32 -7 3 C-9.375 2.625 -9.375 2.625 -11 2 C-6.9402698 0.48940272 -4.45389333 0 0 0 Z " fill="#A6A6A5" transform="translate(99,165)"/>
<path d="M0 0 C-1.05078125 1.51953125 -1.05078125 1.51953125 -3 3 C-6.35546875 3.07421875 -6.35546875 3.07421875 -10.1875 2.6875 C-11.45980469 2.56761719 -12.73210937 2.44773438 -14.04296875 2.32421875 C-15.01878906 2.21722656 -15.99460937 2.11023438 -17 2 C-17 1.67 -17 1.34 -17 1 C-11.27959989 0.1679418 -5.77759884 -0.12036664 0 0 Z " fill="#C7C7C7" transform="translate(83,169)"/>
<path d="M0 0 C0.66 0.33 1.32 0.66 2 1 C0.7934375 1.86625 0.7934375 1.86625 -0.4375 2.75 C-4.55042128 6.73511864 -3.90575435 12.62799777 -4 18 C-4.33 18 -4.66 18 -5 18 C-5.13526139 15.75165504 -5.23210804 13.50097486 -5.3125 11.25 C-5.39951172 9.37054688 -5.39951172 9.37054688 -5.48828125 7.453125 C-5 4 -5 4 -2.48046875 1.546875 C-1.66191406 1.03640625 -0.84335938 0.5259375 0 0 Z " fill="#774F66" transform="translate(171,148)"/>
</svg>
